<mxfile host="app.diagrams.net" modified="2021-07-07T14:00:32.475Z" agent="5.0 (Windows NT 10.0; Win64; x64) AppleWebKit/537.36 (KHTML, like Gecko) Chrome/91.0.4472.124 Safari/537.36" etag="BCaBiIyCSAZJ9hZM-EnM" version="14.8.4" type="github">
  <diagram id="mEgPN5M48UXVFTl7Cc3G" name="Page-1">
    <mxGraphModel dx="1673" dy="831" grid="1" gridSize="10" guides="1" tooltips="1" connect="1" arrows="1" fold="1" page="1" pageScale="1" pageWidth="2339" pageHeight="3300" math="0" shadow="0">
      <root>
        <mxCell id="0" />
        <mxCell id="1" parent="0" />
        <mxCell id="vGP-qJGgFgf2hfA1DC-v-9" value="" style="shape=ext;double=1;whiteSpace=wrap;html=1;aspect=fixed;fillColor=#f5f5f5;strokeColor=#666666;fontColor=#333333;" vertex="1" parent="1">
          <mxGeometry x="355" y="155" width="775" height="775" as="geometry" />
        </mxCell>
        <mxCell id="vGP-qJGgFgf2hfA1DC-v-11" value="&lt;font style=&quot;font-size: 22px&quot;&gt;基础电商工作台&lt;/font&gt;" style="rounded=0;whiteSpace=wrap;html=1;fillColor=#008a00;strokeColor=#005700;fontColor=#ffffff;" vertex="1" parent="1">
          <mxGeometry x="367.5" y="100" width="750" height="40" as="geometry" />
        </mxCell>
        <mxCell id="vGP-qJGgFgf2hfA1DC-v-12" value="" style="rounded=0;whiteSpace=wrap;html=1;fillColor=#ffe6cc;strokeColor=#d79b00;" vertex="1" parent="1">
          <mxGeometry x="430" y="190" width="600" height="140" as="geometry" />
        </mxCell>
        <mxCell id="vGP-qJGgFgf2hfA1DC-v-13" value="&lt;font style=&quot;font-size: 16px&quot;&gt;身份认证&lt;/font&gt;" style="rounded=1;whiteSpace=wrap;html=1;" vertex="1" parent="1">
          <mxGeometry x="465" y="230" width="215" height="60" as="geometry" />
        </mxCell>
        <mxCell id="vGP-qJGgFgf2hfA1DC-v-14" value="&lt;font style=&quot;font-size: 18px&quot;&gt;功能获取&lt;/font&gt;" style="text;html=1;strokeColor=none;fillColor=none;align=center;verticalAlign=middle;whiteSpace=wrap;rounded=0;" vertex="1" parent="1">
          <mxGeometry x="450" y="200" width="90" height="20" as="geometry" />
        </mxCell>
        <mxCell id="vGP-qJGgFgf2hfA1DC-v-15" value="&lt;font style=&quot;font-size: 15px&quot;&gt;权限/功能申请&lt;/font&gt;" style="rounded=1;whiteSpace=wrap;html=1;" vertex="1" parent="1">
          <mxGeometry x="720" y="230" width="220" height="60" as="geometry" />
        </mxCell>
        <mxCell id="vGP-qJGgFgf2hfA1DC-v-16" value="" style="rounded=0;whiteSpace=wrap;html=1;fillColor=#ffe6cc;strokeColor=#d79b00;" vertex="1" parent="1">
          <mxGeometry x="430" y="350" width="600" height="140" as="geometry" />
        </mxCell>
        <mxCell id="vGP-qJGgFgf2hfA1DC-v-17" value="&lt;font style=&quot;font-size: 15px&quot;&gt;开发功能&lt;/font&gt;" style="rounded=1;whiteSpace=wrap;html=1;" vertex="1" parent="1">
          <mxGeometry x="460" y="390" width="230" height="60" as="geometry" />
        </mxCell>
        <mxCell id="vGP-qJGgFgf2hfA1DC-v-18" value="&lt;font style=&quot;font-size: 15px&quot;&gt;功能管理&lt;/font&gt;" style="rounded=1;whiteSpace=wrap;html=1;" vertex="1" parent="1">
          <mxGeometry x="720" y="390" width="210" height="60" as="geometry" />
        </mxCell>
        <mxCell id="vGP-qJGgFgf2hfA1DC-v-19" value="" style="rounded=0;whiteSpace=wrap;html=1;fillColor=#ffe6cc;strokeColor=#d79b00;" vertex="1" parent="1">
          <mxGeometry x="430" y="520" width="600" height="200" as="geometry" />
        </mxCell>
        <mxCell id="vGP-qJGgFgf2hfA1DC-v-20" value="&lt;font style=&quot;font-size: 19px&quot;&gt;一站式快捷入口&lt;/font&gt;" style="rounded=0;whiteSpace=wrap;html=1;fillColor=#d5e8d4;strokeColor=#82b366;" vertex="1" parent="1">
          <mxGeometry x="460" y="530" width="30" height="170" as="geometry" />
        </mxCell>
        <mxCell id="vGP-qJGgFgf2hfA1DC-v-21" value="&lt;font style=&quot;font-size: 15px&quot;&gt;平台A功能&lt;/font&gt;" style="rounded=1;whiteSpace=wrap;html=1;" vertex="1" parent="1">
          <mxGeometry x="510" y="550" width="130" height="30" as="geometry" />
        </mxCell>
        <mxCell id="vGP-qJGgFgf2hfA1DC-v-22" value="&lt;font style=&quot;font-size: 15px&quot;&gt;平台B功能&lt;/font&gt;" style="rounded=1;whiteSpace=wrap;html=1;" vertex="1" parent="1">
          <mxGeometry x="660" y="550" width="130" height="30" as="geometry" />
        </mxCell>
        <mxCell id="vGP-qJGgFgf2hfA1DC-v-25" value="&lt;font style=&quot;font-size: 15px&quot;&gt;......&lt;/font&gt;" style="rounded=1;whiteSpace=wrap;html=1;" vertex="1" parent="1">
          <mxGeometry x="800" y="550" width="130" height="30" as="geometry" />
        </mxCell>
        <mxCell id="vGP-qJGgFgf2hfA1DC-v-26" value="&lt;span style=&quot;font-size: 15px&quot;&gt;常用功能&lt;/span&gt;" style="rounded=1;whiteSpace=wrap;html=1;" vertex="1" parent="1">
          <mxGeometry x="510" y="610" width="180" height="30" as="geometry" />
        </mxCell>
        <mxCell id="vGP-qJGgFgf2hfA1DC-v-27" value="&lt;span style=&quot;font-size: 15px&quot;&gt;最近使用功能&lt;/span&gt;" style="rounded=1;whiteSpace=wrap;html=1;" vertex="1" parent="1">
          <mxGeometry x="710" y="610" width="220" height="30" as="geometry" />
        </mxCell>
        <mxCell id="vGP-qJGgFgf2hfA1DC-v-29" value="&lt;span style=&quot;font-size: 15px&quot;&gt;自定义功能&lt;/span&gt;" style="rounded=1;whiteSpace=wrap;html=1;" vertex="1" parent="1">
          <mxGeometry x="510" y="660" width="420" height="30" as="geometry" />
        </mxCell>
        <mxCell id="vGP-qJGgFgf2hfA1DC-v-31" value="&lt;font style=&quot;font-size: 18px&quot;&gt;功能开发&lt;/font&gt;" style="text;html=1;strokeColor=none;fillColor=none;align=center;verticalAlign=middle;whiteSpace=wrap;rounded=0;" vertex="1" parent="1">
          <mxGeometry x="440" y="360" width="90" height="20" as="geometry" />
        </mxCell>
        <mxCell id="vGP-qJGgFgf2hfA1DC-v-32" value="" style="rounded=0;whiteSpace=wrap;html=1;fillColor=#ffe6cc;strokeColor=#d79b00;" vertex="1" parent="1">
          <mxGeometry x="430" y="760" width="600" height="150" as="geometry" />
        </mxCell>
        <mxCell id="vGP-qJGgFgf2hfA1DC-v-33" value="&lt;font style=&quot;font-size: 18px&quot;&gt;权限管控&lt;/font&gt;" style="text;html=1;strokeColor=none;fillColor=none;align=center;verticalAlign=middle;whiteSpace=wrap;rounded=0;" vertex="1" parent="1">
          <mxGeometry x="430" y="770" width="90" height="20" as="geometry" />
        </mxCell>
        <mxCell id="vGP-qJGgFgf2hfA1DC-v-34" value="&lt;font style=&quot;font-size: 15px&quot;&gt;功能使用权限管控&lt;/font&gt;" style="rounded=1;whiteSpace=wrap;html=1;" vertex="1" parent="1">
          <mxGeometry x="465" y="810" width="235" height="60" as="geometry" />
        </mxCell>
        <mxCell id="vGP-qJGgFgf2hfA1DC-v-35" value="&lt;font style=&quot;font-size: 15px&quot;&gt;功能展示管控&lt;/font&gt;" style="rounded=1;whiteSpace=wrap;html=1;" vertex="1" parent="1">
          <mxGeometry x="730" y="810" width="210" height="60" as="geometry" />
        </mxCell>
        <mxCell id="vGP-qJGgFgf2hfA1DC-v-36" value="" style="shape=actor;whiteSpace=wrap;html=1;fillColor=#dae8fc;strokeColor=#6c8ebf;" vertex="1" parent="1">
          <mxGeometry x="180" y="490" width="40" height="60" as="geometry" />
        </mxCell>
        <mxCell id="vGP-qJGgFgf2hfA1DC-v-37" value="" style="shape=singleArrow;whiteSpace=wrap;html=1;rounded=1;" vertex="1" parent="1">
          <mxGeometry x="240" y="500" width="100" height="60" as="geometry" />
        </mxCell>
        <mxCell id="vGP-qJGgFgf2hfA1DC-v-38" value="&lt;font style=&quot;font-size: 15px&quot;&gt;用户/功能开发者&lt;/font&gt;" style="text;html=1;align=center;verticalAlign=middle;resizable=0;points=[];autosize=1;strokeColor=none;" vertex="1" parent="1">
          <mxGeometry x="130" y="570" width="120" height="20" as="geometry" />
        </mxCell>
      </root>
    </mxGraphModel>
  </diagram>
</mxfile>
